<svg width="30" height="30" viewBox="0 0 30 30" fill="none" xmlns="http://www.w3.org/2000/svg">
<g clip-path="url(#clip0)">
<path d="M14.9916 3.95462C8.4525 -1.76475 0.13815 3.26045 0.00181273 10.0729C-0.0329307 11.8091 0.468242 13.5003 1.46584 15.0594H7.93199L9.0821 13.1425C9.41606 12.5859 10.2242 12.568 10.5771 13.1228L13.0037 16.936L16.5409 9.46875C16.8494 8.81718 17.7687 8.79649 18.1089 9.42832L21.1411 15.0594H28.5173C33.9815 6.51942 23.1825 -3.20939 14.9916 3.95462Z" fill="white"/>
<path d="M19.8422 16.3547L17.3852 11.7917L13.9108 19.1265C13.6152 19.7506 12.7458 19.8048 12.3751 19.2222L9.85755 15.266L9.18301 16.3902C9.02418 16.655 8.73815 16.8169 8.42944 16.8169H2.85596C3.03067 16.9998 2.09951 16.0705 14.3716 28.2789C14.7143 28.62 15.2684 28.6201 15.6112 28.2789C27.6944 16.2583 26.9524 16.9994 27.1268 16.8169H20.616C20.2927 16.817 19.9955 16.6394 19.8422 16.3547Z" fill="white"/>
</g>
<defs>
<clipPath id="clip0">
<rect width="30" height="30" fill="white"/>
</clipPath>
</defs>
</svg>
