<svg width="25" height="26" viewBox="0 0 25 26" fill="none" xmlns="http://www.w3.org/2000/svg">
<path d="M22.751 8.87066L14.2508 0.968066C13.0364 -0.313721 11.0594 -0.313721 9.89524 0.9151L1.29461 8.92362C0.461644 9.80287 0 10.9787 0 12.2287V22.8114C0 24.5699 1.35483 26 3.02076 26H21.0851C22.741 26 24.0958 24.5699 24.0958 22.8114V12.2287C24.0958 10.9787 23.6342 9.80287 22.751 8.87066ZM22.0887 22.8114C22.0887 23.4046 21.6371 23.8813 21.0851 23.8813H14.7224V17.0593C14.7224 16.4449 14.2608 15.9576 13.6787 15.9576H10.4171C9.84506 15.9576 9.37338 16.4449 9.37338 17.0593V23.8813H3.02076C2.45876 23.8813 2.00715 23.4046 2.00715 22.8114V12.2287C2.00715 11.5614 2.26808 10.894 2.66951 10.4597L11.2701 2.46172C11.4809 2.23926 11.7519 2.12273 12.0329 2.12273C12.3339 2.12273 12.635 2.24985 12.8759 2.50409L21.3761 10.4173C21.8378 10.9046 22.0887 11.5508 22.0887 12.2287V22.8114Z" fill="#9C9D9D"/>
</svg>
