<svg width="23" height="29" viewBox="0 0 23 29" fill="none" xmlns="http://www.w3.org/2000/svg">
<path d="M7.89311 11.4229C7.94689 11.5099 8.04222 11.5679 8.15222 11.5679H8.15467C8.228 11.5679 8.294 11.5413 8.34656 11.4991L8.36244 11.4821C8.83544 11.0906 9.26322 10.6895 9.66289 10.2617L9.67144 10.2533C11.1503 8.59525 11.9646 6.45963 11.9607 4.24905C11.9607 3.01655 11.7126 1.83963 11.2628 0.767842L11.2848 0.828259C11.2307 0.705735 11.2192 0.568926 11.2521 0.439261C11.2851 0.309596 11.3606 0.1944 11.4669 0.111717L11.4681 0.110509C11.5798 0.0320863 11.7151 -0.0065535 11.8518 0.000909432C11.9886 0.00837237 12.1187 0.0614963 12.221 0.151592C25.5127 12.3727 21.9988 21.6817 21.736 22.3088C20.6727 26.1042 16.4377 28.8507 11.4156 28.9909C11.2469 29.0005 11.1198 29.0005 10.9719 29.0005C5.04167 29.0005 0 25.3888 0 20.7754V20.7029C0 14.2988 5.86667 7.98884 6.12211 7.72059C6.20045 7.63199 6.3063 7.57159 6.42308 7.54885C6.53986 7.52611 6.66098 7.54231 6.76744 7.59492L6.76378 7.59372C6.86919 7.63751 6.95918 7.71109 7.02245 7.80524C7.08572 7.8994 7.11946 8.00993 7.11944 8.12297V8.13988V8.13867C7.03743 9.28812 7.31156 10.435 7.90533 11.4266L7.89067 11.4V11.4217L7.89311 11.4229Z" fill="white"/>
</svg>
