<svg width="29" height="36" viewBox="0 0 29 36" fill="none" xmlns="http://www.w3.org/2000/svg">
<g clip-path="url(#clip0_96_2834)" filter="url(#filter0_d_96_2834)">
<path d="M21.6528 15.6884C22.6073 14.8451 23.3645 13.8422 23.8806 12.7375C24.3967 11.6327 24.6615 10.4481 24.6597 9.25186V9.1737V9.1702C24.6633 6.73421 23.5823 4.39594 21.6528 2.66603L21.6541 2.6672C20.7059 1.82018 19.5785 1.14835 18.3369 0.690415C17.0952 0.232482 15.7639 -0.00249322 14.4196 -0.000968944H14.3264H14.3317H14.3238C11.5833 -0.00409813 8.95276 0.956793 7.00661 2.67186L7.00792 2.6707C6.05341 3.51392 5.29626 4.51685 4.78016 5.62159C4.26406 6.72633 3.99924 7.911 4.00099 9.1072V9.18536V9.18186V9.18886C4.00099 11.7252 5.14942 14.0224 7.00792 15.693L7.00661 15.6919C7.70653 16.3072 8.26189 17.04 8.64043 17.8477C9.01896 18.6555 9.21312 19.522 9.21161 20.397V20.4239C9.21161 21.104 9.83111 21.6547 10.5963 21.6547H18.025C18.2036 21.6549 18.3802 21.6217 18.5434 21.5574C18.7067 21.4931 18.8529 21.3991 18.9727 21.2814L18.974 21.2802C19.1068 21.1678 19.2126 21.0326 19.2848 20.8828C19.357 20.733 19.3941 20.5717 19.394 20.4087V20.4029C19.425 18.6293 20.2335 16.9365 21.6475 15.6849L21.6528 15.6884ZM19.6329 13.936C18.0407 15.3389 17.0188 17.1728 16.7283 19.1487L16.723 19.1942H16.0182L17.8032 11.5572C17.844 11.3957 17.8486 11.2287 17.8167 11.0656C17.7849 10.9026 17.7172 10.7467 17.6175 10.6069C17.5179 10.4671 17.3883 10.3461 17.236 10.2508C17.0838 10.1555 16.9119 10.0878 16.7303 10.0516C16.5486 10.0154 16.3607 10.0113 16.1772 10.0396C15.9938 10.0679 15.8184 10.1281 15.6612 10.2167C15.5039 10.3052 15.3678 10.4205 15.2606 10.5558C15.1534 10.6911 15.0772 10.8439 15.0365 11.0054L15.0352 11.0135L14.2385 14.4365L13.3447 10.9739C13.3022 10.8134 13.2245 10.6621 13.1159 10.5285C13.0073 10.3949 12.87 10.2818 12.712 10.1956C12.554 10.1094 12.3783 10.0519 12.1952 10.0264C12.012 10.0008 11.825 10.0078 11.6449 10.0468C11.4647 10.0859 11.2951 10.1562 11.1457 10.2539C10.9964 10.3515 10.8702 10.4744 10.7746 10.6156C10.6789 10.7568 10.6156 10.9134 10.5884 11.0764C10.5612 11.2394 10.5706 11.4056 10.616 11.5654L10.6134 11.5572L12.5847 19.151H11.9285C11.6236 17.1642 10.6021 15.3188 9.01736 13.8917L9.01867 13.8929C7.97973 12.9573 7.2759 11.7692 6.99605 10.4783C6.71619 9.18753 6.87285 7.85195 7.44625 6.64021C8.01965 5.42848 8.98409 4.39492 10.2178 3.67002C11.4515 2.94511 12.8992 2.56137 14.378 2.56722C15.8569 2.57308 17.3007 2.96828 18.5271 3.70292C19.7535 4.43757 20.7075 5.47873 21.2687 6.69496C21.83 7.91118 21.9732 9.24795 21.6804 10.5365C21.3877 11.825 20.672 13.0076 19.6237 13.9349L19.6329 13.936Z" fill="#9F9F9F"/>
<path d="M19.7303 23.618V23.597C19.7303 22.9169 19.1108 22.3662 18.3457 22.3662H18.3207H18.322H10.342C9.96852 22.3662 9.61031 22.4981 9.3462 22.7329C9.08209 22.9676 8.93372 23.286 8.93372 23.618C8.93372 23.9501 9.08209 24.2685 9.3462 24.5032C9.61031 24.738 9.96852 24.8699 10.342 24.8699H18.322C18.6951 24.8686 19.0525 24.7364 19.3163 24.5019C19.5801 24.2674 19.729 23.9497 19.7303 23.618Z" fill="#9F9F9F"/>
<path d="M17.1473 25.4963H11.2804C11.0955 25.4963 10.9124 25.5287 10.7415 25.5916C10.5706 25.6545 10.4154 25.7467 10.2846 25.863C10.1538 25.9792 10.0501 26.1172 9.97933 26.2691C9.90856 26.421 9.87213 26.5838 9.87213 26.7482C9.87213 26.9126 9.90856 27.0754 9.97933 27.2272C10.0501 27.3791 10.1538 27.5171 10.2846 27.6334C10.4154 27.7496 10.5706 27.8418 10.7415 27.9047C10.9124 27.9676 11.0955 28 11.2804 28H17.1473C17.5103 27.9862 17.8533 27.8484 18.1047 27.6153C18.3562 27.3821 18.4966 27.0717 18.4968 26.7487C18.497 26.4258 18.3568 26.1152 18.1056 25.8819C17.8545 25.6485 17.5116 25.5104 17.1486 25.4963H17.146H17.1473Z" fill="#9F9F9F"/>
</g>
<defs>
<filter id="filter0_d_96_2834" x="0" y="0" width="29" height="36" filterUnits="userSpaceOnUse" color-interpolation-filters="sRGB">
<feFlood flood-opacity="0" result="BackgroundImageFix"/>
<feColorMatrix in="SourceAlpha" type="matrix" values="0 0 0 0 0 0 0 0 0 0 0 0 0 0 0 0 0 0 127 0" result="hardAlpha"/>
<feOffset dy="4"/>
<feGaussianBlur stdDeviation="2"/>
<feComposite in2="hardAlpha" operator="out"/>
<feColorMatrix type="matrix" values="0 0 0 0 0 0 0 0 0 0 0 0 0 0 0 0 0 0 0.25 0"/>
<feBlend mode="normal" in2="BackgroundImageFix" result="effect1_dropShadow_96_2834"/>
<feBlend mode="normal" in="SourceGraphic" in2="effect1_dropShadow_96_2834" result="shape"/>
</filter>
<clipPath id="clip0_96_2834">
<rect width="21" height="28" fill="white" transform="translate(4)"/>
</clipPath>
</defs>
</svg>
