<svg width="21" height="28" viewBox="0 0 21 28" fill="none" xmlns="http://www.w3.org/2000/svg">
<g clip-path="url(#clip0_1300_6379)">
<path d="M17.6528 15.6884C18.6073 14.8451 19.3645 13.8422 19.8806 12.7375C20.3967 11.6327 20.6615 10.4481 20.6597 9.25186V9.1737V9.1702C20.6633 6.73421 19.5823 4.39594 17.6528 2.66603L17.6541 2.6672C16.7059 1.82018 15.5785 1.14835 14.3369 0.690415C13.0952 0.232482 11.7639 -0.00249322 10.4196 -0.000968944H10.3264H10.3317H10.3238C7.58331 -0.00409813 4.95276 0.956793 3.00661 2.67186L3.00792 2.6707C2.05341 3.51392 1.29626 4.51685 0.780155 5.62159C0.264055 6.72633 -0.00076402 7.911 0.000985172 9.1072V9.18536V9.18186V9.18886C0.000985172 11.7252 1.14942 14.0224 3.00792 15.693L3.00661 15.6919C3.70653 16.3072 4.26189 17.04 4.64043 17.8477C5.01896 18.6555 5.21312 19.522 5.21161 20.397V20.4239C5.21161 21.104 5.83111 21.6547 6.5963 21.6547H14.025C14.2036 21.6549 14.3802 21.6217 14.5434 21.5574C14.7067 21.4931 14.8529 21.3991 14.9727 21.2814L14.974 21.2802C15.1068 21.1678 15.2126 21.0326 15.2848 20.8828C15.357 20.733 15.3941 20.5717 15.394 20.4087V20.4029C15.425 18.6293 16.2335 16.9365 17.6475 15.6849L17.6528 15.6884ZM15.6329 13.936C14.0407 15.3389 13.0188 17.1728 12.7283 19.1487L12.723 19.1942H12.0182L13.8032 11.5572C13.844 11.3957 13.8486 11.2287 13.8167 11.0656C13.7849 10.9026 13.7172 10.7467 13.6175 10.6069C13.5179 10.4671 13.3883 10.3461 13.236 10.2508C13.0838 10.1555 12.9119 10.0878 12.7303 10.0516C12.5486 10.0154 12.3607 10.0113 12.1772 10.0396C11.9938 10.0679 11.8184 10.1281 11.6612 10.2167C11.5039 10.3052 11.3678 10.4205 11.2606 10.5558C11.1534 10.6911 11.0772 10.8439 11.0365 11.0054L11.0352 11.0135L10.2385 14.4365L9.34467 10.9739C9.30223 10.8134 9.22448 10.6621 9.11589 10.5285C9.00731 10.3949 8.87004 10.2818 8.71202 10.1956C8.55399 10.1094 8.37833 10.0519 8.19517 10.0264C8.01201 10.0008 7.82498 10.0078 7.64486 10.0468C7.46474 10.0859 7.2951 10.1562 7.14573 10.2539C6.99636 10.3515 6.87021 10.4744 6.77456 10.6156C6.6789 10.7568 6.61565 10.9134 6.58843 11.0764C6.56122 11.2394 6.57058 11.4056 6.61599 11.5654L6.61336 11.5572L8.58474 19.151H7.92849C7.62357 17.1642 6.60211 15.3188 5.01736 13.8917L5.01867 13.8929C3.97973 12.9573 3.2759 11.7692 2.99605 10.4783C2.71619 9.18753 2.87285 7.85195 3.44625 6.64021C4.01965 5.42848 4.98409 4.39492 6.2178 3.67002C7.4515 2.94511 8.89918 2.56137 10.378 2.56722C11.8569 2.57308 13.3007 2.96828 14.5271 3.70292C15.7535 4.43757 16.7075 5.47873 17.2687 6.69496C17.83 7.91118 17.9732 9.24795 17.6804 10.5365C17.3877 11.825 16.672 13.0076 15.6237 13.9349L15.6329 13.936Z" fill="#9F9F9F"/>
<path d="M15.7303 23.618V23.597C15.7303 22.9169 15.1108 22.3662 14.3457 22.3662H14.3207H14.322H6.34203C5.96852 22.3662 5.61031 22.4981 5.3462 22.7329C5.08209 22.9676 4.93372 23.286 4.93372 23.618C4.93372 23.9501 5.08209 24.2685 5.3462 24.5032C5.61031 24.738 5.96852 24.8699 6.34203 24.8699H14.322C14.6951 24.8686 15.0525 24.7364 15.3163 24.5019C15.5801 24.2674 15.729 23.9497 15.7303 23.618Z" fill="#9F9F9F"/>
<path d="M13.1473 25.4963H7.28044C7.0955 25.4963 6.91237 25.5287 6.74151 25.5916C6.57064 25.6545 6.41539 25.7467 6.28462 25.863C6.15384 25.9792 6.05011 26.1172 5.97933 26.2691C5.90856 26.421 5.87213 26.5838 5.87213 26.7482C5.87213 26.9126 5.90856 27.0754 5.97933 27.2272C6.05011 27.3791 6.15384 27.5171 6.28462 27.6334C6.41539 27.7496 6.57064 27.8418 6.74151 27.9047C6.91237 27.9676 7.0955 28 7.28044 28H13.1473C13.5103 27.9862 13.8533 27.8484 14.1047 27.6153C14.3562 27.3821 14.4966 27.0717 14.4968 26.7487C14.497 26.4258 14.3568 26.1152 14.1056 25.8819C13.8545 25.6485 13.5116 25.5104 13.1486 25.4963H13.146H13.1473Z" fill="#9F9F9F"/>
</g>
<defs>
<clipPath id="clip0_1300_6379">
<rect width="21" height="28" fill="white"/>
</clipPath>
</defs>
</svg>
