<svg width="27" height="27" viewBox="0 0 27 27" fill="none" xmlns="http://www.w3.org/2000/svg">
<g clip-path="url(#clip0_117_2577)">
<path d="M4.70587 26.7679C5.01474 27.0768 5.51561 27.0768 5.82452 26.7679C6.13344 26.459 6.13344 25.9581 5.82452 25.6492L5.26517 25.0899L9.4285 20.9265L11.1065 22.6045C11.4154 22.9135 11.9162 22.9135 12.2252 22.6045C12.5341 22.2956 12.5341 21.7948 12.2252 21.4859C11.9167 21.1775 11.9167 20.6756 12.2251 20.3673L21.1778 11.418C21.3262 11.2697 21.4096 11.0684 21.4096 10.8585V8.94814L22.2932 8.06189C23.0377 7.31738 23.1708 6.22425 22.7573 5.36041L26.7678 1.34985C27.0767 1.04094 27.0767 0.540118 26.7678 0.2312C26.4589 -0.0777178 25.958 -0.0777178 25.6491 0.2312L21.6376 4.24276C20.7557 3.82257 19.6665 3.9765 18.938 4.70503L18.051 5.58938H16.1405C15.9307 5.58938 15.7294 5.67276 15.5811 5.8212L6.63194 14.7739C6.32344 15.0824 5.82173 15.0823 5.51323 14.7739C5.20437 14.4649 4.7035 14.4649 4.39458 14.7739C4.08566 15.0827 4.08566 15.5836 4.39458 15.8925L6.07259 17.5705L1.90921 21.7339L1.34985 21.1745C1.04104 20.8656 0.540171 20.8656 0.2312 21.1745C-0.0777178 21.4834 -0.0777178 21.9842 0.2312 22.2932C0.832478 22.8944 4.32038 26.3824 4.70587 26.7679ZM21.1746 5.82458C21.4818 6.13186 21.4858 6.63189 21.1737 6.94408L20.6178 7.50169L19.4974 6.38129L20.0558 5.82458C20.3644 5.51613 20.8662 5.51624 21.1746 5.82458ZM16.4683 7.17141H18.0503L19.8277 8.94888V10.5309L19.4982 10.8602L18.9372 10.2993C18.6284 9.99038 18.1275 9.99038 17.8186 10.2993C17.5097 10.6082 17.5097 11.109 17.8186 11.418L18.3793 11.9787L17.2604 13.0972L16.6999 12.5366C16.391 12.2277 15.8901 12.2277 15.5812 12.5366C15.2723 12.8455 15.2723 13.3463 15.5812 13.6553L16.1415 14.2156L15.0227 15.334L14.4625 14.7739C14.1537 14.465 13.6528 14.4649 13.3439 14.7739C13.0349 15.0828 13.0349 15.5836 13.3439 15.8925L13.9037 16.4524L12.7849 17.5708L9.42823 14.2142L16.4683 7.17141ZM7.7507 15.8924L8.30984 15.3331L11.6661 18.6893L11.1066 19.2485C10.9131 19.442 10.7571 19.6631 10.6423 19.9029C9.82917 19.0898 7.87146 17.1321 7.09621 16.3568C7.336 16.242 7.55711 16.0861 7.7507 15.8924ZM7.19124 18.6892L8.3099 19.8079L4.14657 23.9712L3.02792 22.8526L7.19124 18.6892Z" fill="#9F9F9F"/>
</g>
<defs>
<clipPath id="clip0_117_2577">
<rect width="27" height="27" fill="white"/>
</clipPath>
</defs>
</svg>
