<svg width="26" height="26" viewBox="0 0 26 26" fill="none" xmlns="http://www.w3.org/2000/svg">
<path d="M13 0C5.83192 0 0 5.83192 0 13C0 20.1681 5.83192 26 13 26C20.1681 26 26 20.1681 26 13C26 5.83192 20.1681 0 13 0ZM23.2736 17.2896C21.9957 20.3394 19.3976 22.704 16.1973 23.6651C16.2547 23.5585 16.3102 23.4509 16.364 23.342C16.6389 22.7856 16.9278 22.3933 17.4127 22.002C17.7838 21.7023 18.5123 21.2382 18.3932 20.6529C18.3073 20.23 17.8244 20.0565 17.4595 19.9531C16.8805 19.789 16.2612 19.7465 15.6637 19.7052C15.1463 19.669 14.609 19.6874 14.1039 19.5586C13.348 19.3662 13.1776 18.7118 13.1298 18.0221C13.0871 17.4089 13.0963 16.7785 12.7947 16.2236C12.4064 15.5094 11.5127 15.3063 10.7717 15.2382C10.1461 15.1809 9.52132 15.2111 8.89913 15.1068C8.30053 15.0066 7.73361 14.7964 7.11892 14.8202C6.32229 14.8509 5.96452 15.3909 5.62471 16.0153C5.45698 16.3236 4.39751 18.6951 3.77502 19.2269C2.70164 17.6423 2.02643 15.7674 1.89195 13.7468C1.97993 13.7231 2.06712 13.6903 2.15564 13.6462C2.50199 13.4742 2.74463 13.1638 3.12151 13.0409C3.48086 12.9238 3.94511 13.0276 4.31225 13.0636C4.67758 13.0993 5.0486 13.1372 5.41423 13.0874C6.1441 12.9877 6.53084 12.4836 6.64741 11.7798C6.71671 11.3593 6.66265 10.9366 6.67517 10.5133C6.69494 9.85364 7.12781 9.61698 7.7243 9.56086C8.851 9.45505 11.4792 9.75363 11.5325 8.01961C11.5551 7.27788 10.6723 6.89508 10.0974 6.69712C8.9778 6.31195 7.75453 6.44643 6.60944 6.17887C6.00038 6.03654 5.48666 5.65663 5.05591 5.20762C7.07811 3.14703 9.89197 1.8662 13 1.8662C13.6648 1.8662 14.3154 1.92485 14.9481 2.03719C14.6246 2.09729 14.3053 2.18267 13.9947 2.30813C12.3556 2.96896 12.3063 4.82844 13.0227 6.22537C13.467 7.09171 14.1865 7.81753 14.9381 8.4211C15.6657 9.00513 16.4607 9.35027 17.2674 9.79329C18.3377 10.3818 18.2085 11.9187 18.4792 12.9542C18.7076 13.8275 19.256 14.5642 20.1204 14.8666C20.643 15.0492 21.2569 14.9066 21.7145 15.2708C22.1075 15.5826 22.1998 16.2209 22.4245 16.6499C22.6482 17.0779 22.946 17.2581 23.2736 17.2896Z" fill="#9F9F9F"/>
</svg>
