<svg width="18" height="18" viewBox="0 0 18 18" fill="none" xmlns="http://www.w3.org/2000/svg">
<circle cx="9" cy="9" r="9" fill="#DBDBDB"/>
<path d="M12.5327 10.2501C12.8405 9.63556 13.001 8.94977 13 8.25349C13 5.90431 11.2092 4 9 4C6.79083 4 5.00001 5.90431 5.00001 8.25349C4.99839 9.25689 5.33193 10.2283 5.94118 10.9945L5.94589 11.0007C5.94753 11.0022 5.94895 11.0043 5.95012 11.0058H5.94118L8.31483 13.6855C8.40282 13.7848 8.50898 13.8639 8.62679 13.918C8.7446 13.9721 8.87156 14 8.99988 14C9.1282 14 9.25517 13.9721 9.37298 13.918C9.49079 13.8639 9.59695 13.7848 9.68494 13.6855L12.0588 11.0058H12.0499L12.0536 11.001L12.0541 11.0005C12.0711 10.979 12.088 10.9575 12.1047 10.9354C12.2679 10.7221 12.4113 10.4926 12.5329 10.2499L12.5327 10.2501ZM9.00094 9.87983C8.62652 9.87983 8.26743 9.72166 8.00268 9.44013C7.73792 9.15859 7.58918 8.77675 7.58918 8.37859C7.58918 7.98044 7.73792 7.5986 8.00268 7.31706C8.26743 7.03553 8.62652 6.87736 9.00094 6.87736C9.37536 6.87736 9.73445 7.03553 9.99921 7.31706C10.264 7.5986 10.4127 7.98044 10.4127 8.37859C10.4127 8.77675 10.264 9.15859 9.99921 9.44013C9.73445 9.72166 9.37536 9.87983 9.00094 9.87983Z" fill="#3F4553"/>
</svg>
