<svg width="30" height="30" viewBox="0 0 30 30" fill="none" xmlns="http://www.w3.org/2000/svg">
<g clip-path="url(#clip0)">
<path d="M29.062 13.1242C28.5445 13.1242 28.1245 13.5441 28.1245 14.0616V24.6772L20.625 27.677V17.8114C20.625 17.2939 20.205 16.8739 19.6876 16.8739C19.1701 16.8739 18.7501 17.2939 18.7501 17.8114V27.6751L11.2506 24.6753V9.82249L15.5947 11.5605C16.069 11.7517 16.6202 11.5193 16.8134 11.0374C17.0065 10.5574 16.7721 10.0119 16.2903 9.81874L10.6787 7.57263C10.6787 7.57263 10.6787 7.57263 10.6769 7.57263L10.6619 7.56701C10.4388 7.47701 10.1894 7.47701 9.96628 7.56701L9.94941 7.57263C9.94941 7.57263 9.94941 7.57263 9.94753 7.57263L0.589995 11.3168C0.235642 11.4593 0.00128174 11.8024 0.00128174 12.1867V29.0607C0.00128174 29.3719 0.156897 29.6625 0.413756 29.8369C0.571246 29.9438 0.75311 29.9981 0.938723 29.9981C1.05684 29.9981 1.17496 29.9756 1.28745 29.9306L10.3131 26.3215L19.3219 29.925C19.3219 29.925 19.322 29.925 19.3238 29.925L19.3407 29.9325C19.5638 30.0225 19.8132 30.0225 20.0363 29.9325L20.0532 29.925C20.0532 29.925 20.0532 29.925 20.055 29.925L29.4126 26.1827C29.765 26.0384 29.9994 25.6953 29.9994 25.3109V14.0616C29.9994 13.5441 29.5794 13.1242 29.062 13.1242ZM9.3757 24.6753L1.87616 27.6751V12.8204L9.3757 9.82062V24.6753Z" fill="#9C9D9D"/>
<path d="M23.437 3.74976C21.8864 3.74976 20.6246 5.01155 20.6246 6.56208C20.6246 8.11261 21.8864 9.3744 23.437 9.3744C24.9875 9.3744 26.2493 8.11261 26.2493 6.56208C26.2493 5.01155 24.9875 3.74976 23.437 3.74976ZM23.437 7.49952C22.9195 7.49952 22.4995 7.07955 22.4995 6.56208C22.4995 6.04461 22.9195 5.62464 23.437 5.62464C23.9544 5.62464 24.3744 6.04461 24.3744 6.56208C24.3744 7.07955 23.9544 7.49952 23.437 7.49952Z" fill="#9C9D9D"/>
<path d="M23.437 0C19.8184 0 16.8749 2.94357 16.8749 6.56209C16.8749 9.92938 22.1395 15.8934 22.7395 16.5627C22.9176 16.7596 23.1707 16.8739 23.437 16.8739C23.7032 16.8739 23.9563 16.7596 24.1344 16.5627C24.7344 15.8934 29.9991 9.92938 29.9991 6.56209C29.9991 2.94357 27.0555 0 23.437 0ZM23.437 14.506C21.3896 12.078 18.7498 8.35073 18.7498 6.56209C18.7498 3.9785 20.8534 1.87488 23.437 1.87488C26.0206 1.87488 28.1242 3.9785 28.1242 6.56209C28.1242 8.34885 25.4843 12.078 23.437 14.506Z" fill="#9C9D9D"/>
</g>
<defs>
<clipPath id="clip0">
<rect width="30" height="30" fill="white"/>
</clipPath>
</defs>
</svg>
