<svg width="28" height="26" viewBox="0 0 28 26" fill="none" xmlns="http://www.w3.org/2000/svg">
<path d="M27.1797 5.6569H20.9453V0.8159C20.9453 0.365305 20.578 0 20.125 0H0.820312C0.367281 0 0 0.365305 0 0.8159V21.9205C0 24.1699 1.83996 26 4.10156 26H23.8984C26.16 26 28 24.1699 28 21.9205V6.4728C28 6.02221 27.6327 5.6569 27.1797 5.6569ZM4.10156 24.3682C2.7446 24.3682 1.64062 23.2702 1.64062 21.9205V1.6318H19.3047C19.3047 23.1969 19.2944 21.998 19.3235 22.3054C19.3948 23.0618 19.6784 23.7751 20.1269 24.3682H4.10156ZM26.3594 21.9205C26.3594 23.2702 25.2554 24.3682 23.8984 24.3682C23.7144 24.3682 23.587 24.3682 23.4062 24.3682C22.0493 24.3682 20.9453 23.2702 20.9453 21.9205V7.2887H26.3594V21.9205Z" fill="#9C9D9D"/>
<path d="M16.625 3.91626H4.375C3.92197 3.91626 3.55469 4.28156 3.55469 4.73216C3.55469 5.18275 3.92197 5.54806 4.375 5.54806H16.625C17.078 5.54806 17.4453 5.18275 17.4453 4.73216C17.4453 4.28156 17.078 3.91626 16.625 3.91626Z" fill="#9C9D9D"/>
<path d="M16.625 7.39746H4.375C3.92197 7.39746 3.55469 7.76277 3.55469 8.21336C3.55469 8.66395 3.92197 9.02926 4.375 9.02926H16.625C17.078 9.02926 17.4453 8.66395 17.4453 8.21336C17.4453 7.76277 17.078 7.39746 16.625 7.39746Z" fill="#9C9D9D"/>
<path d="M16.625 20.4519H4.375C3.92197 20.4519 3.55469 20.8172 3.55469 21.2678C3.55469 21.7184 3.92197 22.0837 4.375 22.0837H16.625C17.078 22.0837 17.4453 21.7184 17.4453 21.2678C17.4453 20.8172 17.078 20.4519 16.625 20.4519Z" fill="#9C9D9D"/>
<path d="M16.625 10.8787H10.5C10.047 10.8787 9.67969 11.244 9.67969 11.6946V17.7866C9.67969 18.2372 10.047 18.6025 10.5 18.6025H16.625C17.078 18.6025 17.4453 18.2372 17.4453 17.7866V11.6946C17.4453 11.244 17.078 10.8787 16.625 10.8787ZM15.8047 16.9707H11.3203V12.5105H15.8047V16.9707Z" fill="#9C9D9D"/>
<path d="M4.375 13.8159H7C7.45303 13.8159 7.82031 13.4506 7.82031 13C7.82031 12.5494 7.45303 12.1841 7 12.1841H4.375C3.92197 12.1841 3.55469 12.5494 3.55469 13C3.55469 13.4506 3.92197 13.8159 4.375 13.8159Z" fill="#9C9D9D"/>
<path d="M4.375 17.2971H7C7.45303 17.2971 7.82031 16.9318 7.82031 16.4812C7.82031 16.0306 7.45303 15.6653 7 15.6653H4.375C3.92197 15.6653 3.55469 16.0306 3.55469 16.4812C3.55469 16.9318 3.92197 17.2971 4.375 17.2971Z" fill="#9C9D9D"/>
</svg>
