<svg width="25" height="27" viewBox="0 0 25 27" fill="none" xmlns="http://www.w3.org/2000/svg">
<path d="M12.5 27C14.471 27 16.0697 25.4892 16.0697 23.625H8.93026C8.93026 25.4892 10.529 27 12.5 27ZM24.5195 19.1051C23.4414 18.0104 21.4241 16.3635 21.4241 10.9688C21.4241 6.87129 18.3839 3.59121 14.2846 2.78648V1.6875C14.2846 0.755684 13.4855 0 12.5 0C11.5145 0 10.7154 0.755684 10.7154 1.6875V2.78648C6.61609 3.59121 3.57592 6.87129 3.57592 10.9688C3.57592 16.3635 1.55863 18.0104 0.480506 19.1051C0.145685 19.4453 -0.00275159 19.8519 3.85818e-05 20.25C0.00617696 21.1148 0.724367 21.9375 1.79133 21.9375H23.2087C24.2756 21.9375 24.9944 21.1148 25 20.25C25.0028 19.8519 24.8543 19.4447 24.5195 19.1051Z" fill="#FFD233"/>
</svg>
